# xmcd CD database file
#
# Track frame offsets:
#	182
#	13615
#	37715
#
# Disc length: 910 seconds
#
# Revision: 0
# Processed by: cddbd v1.5PL3 Copyright (c) Steve Scherf et al.
# Submitted via: CDex 1.50beta10
#
DISCID=13038c03
DTITLE=Mark Linn - Røde Kinder [CD-Single)
DYEAR=1996
DGENRE=Jazz
TTITLE0=Røde Kinder - Original Grand Prix Version
TTITLE1=Røde Kinder - Det Store Bryllups Mix
TTITLE2=Røde Kinder - TNT's Det' vi sgu' ikke generte over dub
EXTD=YEAR: 1996
EXTT0=
EXTT1=
EXTT2=
PLAYORDER=
